<svg width="471" height="276" viewBox="0 0 471 276" fill="none" xmlns="http://www.w3.org/2000/svg">
<path d="M209.792 27.8313C200.085 31.7327 208.771 44.1837 220.278 42.8658C226.92 42.1037 228.682 35.117 223.635 29.5427C220.011 25.5371 216.562 25.1107 209.792 27.8313Z" fill="#BC3B46"/>
<path d="M228.977 21.8387C227.436 23.3804 229.178 26.3942 231.611 26.3942C232.61 26.3942 233.426 25.0918 233.426 23.5C233.426 20.517 231.15 19.6661 228.977 21.8387Z" fill="#BC3B46"/>
<path d="M37.1144 220.379C35.3992 222.445 35.5999 223.317 38 224.238C43.5411 226.364 50.4328 225.534 50.4328 222.74C50.4328 217.728 40.7416 216.008 37.1144 220.379Z" fill="#61C9A8"/>
<path d="M46.3025 198.801C41.7299 202.23 43.6053 206.726 51.344 210.891C58.6756 214.837 67.8671 214.197 70.7843 209.537C75.6405 201.78 54.622 192.563 46.3025 198.801Z" fill="#61C9A8"/>
<path d="M198.784 208.48C198.784 210.278 200.096 211.262 202 210.891C206.841 209.954 207.504 205.444 202.803 205.444C200.433 205.444 198.784 206.691 198.784 208.48Z" fill="#EF9B40"/>
<path d="M191.574 186.508C185.121 192.963 191.777 199.473 200.546 195.282C208.665 191.404 208.564 184.193 200.392 184.193C196.815 184.193 192.848 185.235 191.574 186.508Z" fill="#EF9B40"/>
<path d="M389.373 226.602C383.892 228.815 382.381 231.568 383.946 236.5C386.46 244.421 406.058 237.104 406.058 228.246C406.058 224.315 397.203 223.443 389.373 226.602Z" fill="#61C9A8"/>
<path fill-rule="evenodd" clip-rule="evenodd" d="M102.229 28.9542C57.8345 35.1903 22.2087 66.0795 14.0243 105.433C7.87158 135.014 30.231 174.42 59.7832 186.082C75.5538 192.307 113.896 192.521 135.993 186.508C196.093 170.158 224.798 172.396 274.068 197.277C340.502 230.827 398.055 225.521 422.225 183.618C437.557 157.036 438.634 115.046 424.675 88.0525C416.643 72.5182 394.55 56.9955 367.517 47.8922C346.092 40.6759 315.614 45.0192 293.426 58.4503C282.396 65.1263 265.4 68.6901 244.97 68.6091C221.177 68.5145 204.895 63.2528 180.5 47.7745C153.498 30.6425 130.159 25.0297 102.229 28.9542ZM95.7717 84.3981L95.1002 104.951H99.8754C106.736 104.951 109.995 109.451 106.017 113.429C104.313 115.133 101.243 116.528 99.1982 116.528C95.8199 116.528 95.4765 118.014 95.4765 132.606C95.4765 149.495 94.8591 151.641 90.4852 149.962C84.3209 147.597 80.6609 115.102 83.8983 91.4619C88.6697 56.6134 96.8347 51.755 95.7717 84.3981ZM156.045 65.5547C157.949 70.5154 157.38 111.986 155.335 117.367C153.238 122.882 149.246 123.767 145.708 119.503C141.938 114.961 144.33 71.2351 148.737 64.1018C150.388 61.4333 154.801 62.3093 156.045 65.5547ZM76.4876 69.7533C78.8106 72.0764 73.5299 135.848 70.5394 141.582C68.7624 144.994 54.0626 149.605 49.9723 148.034C35.8686 142.622 35.1644 85.7333 49.0019 69.541C52.4535 65.5026 72.3916 65.6569 76.4876 69.7533ZM54.0664 78.2854C50.4624 88.7741 49.2122 106.238 51.0315 120.738C52.1313 129.509 53.0304 136.845 53.0304 137.038C53.0304 137.233 54.653 136.967 56.6344 136.448C59.814 135.616 60.3851 132.739 61.4849 112.028C62.1698 99.1162 62.9357 85.9455 63.1866 82.7619C63.557 78.0558 62.8277 76.8576 59.2931 76.356C56.9007 76.0164 54.5488 76.8846 54.0664 78.2854ZM137.492 79.0129C147.587 86.0825 139.04 110.739 126.495 110.739C113.007 110.739 110.686 86.2735 123.34 77.4847C126.707 75.1481 132.935 75.8196 137.492 79.0129ZM319.331 84.8168C320.366 87.5393 321.213 95.7878 321.213 103.147C321.213 114.77 321.672 116.528 324.703 116.528C326.623 116.528 329.845 117.736 331.865 119.214C336.289 122.448 333.304 127.485 326.377 128.471C322.752 128.989 321.996 130.706 320.859 141.013C319.308 155.077 316.416 161.383 311.919 160.507C308.976 159.934 308.739 156.256 309.389 121.319C309.785 100.112 310.487 82.1116 310.95 81.3147C312.793 78.1523 317.553 80.1416 319.331 84.8168ZM127.568 88.5793C125.798 93.1869 126.069 97.233 128.146 97.233C129.136 97.233 130.523 95.4096 131.232 93.1792C132.804 88.2242 129.362 83.9022 127.568 88.5793ZM185.8 89.9974C186.278 92.5173 185.155 93.374 181.383 93.374C176.404 93.374 176.334 93.5612 176.9 105.433C177.451 116.991 177.695 117.518 182.78 118.102C190.34 118.973 190.025 125.442 182.34 127.13C169.437 129.965 165.43 124.198 167.583 105.881C169.585 88.8436 171.6 85.3107 178.904 86.0169C183.025 86.4144 185.379 87.7727 185.8 89.9974ZM376.198 89.5093C377.6 93.9297 372.649 121.251 368.241 133.411C362.711 148.665 356.451 141.706 358.799 122.914L360.116 112.352L356.099 116.37C343.383 129.087 331.149 112.985 342.534 98.5103C347.614 92.0523 352.906 91.9809 358.754 98.2923L363.311 103.209L364.672 96.8452C367.022 85.8645 373.693 81.6177 376.198 89.5093ZM303.962 95.4212C308.164 102.063 304.086 129.645 297.636 138.204C296.277 140.008 291.56 142.043 287.153 142.728C274.34 144.72 272.32 139.958 275.147 114.415C276.37 103.373 278.085 93.4203 278.959 92.2993C281.228 89.3896 301.768 91.9539 303.962 95.4212ZM245.732 93.1888C250.001 95.892 246.309 99.1625 238.987 99.1625C234.976 99.1625 232.718 99.9459 233.426 101.092C234.082 102.153 236.367 103.021 238.504 103.021C243.937 103.021 242.402 109.589 236.783 110.392C230.822 111.241 231.377 113.342 238.25 115.937C245.523 118.683 245.66 121.653 238.585 123.208C228.468 125.431 222.815 121.601 222.815 112.526C222.815 99.1895 227.69 91.4388 236.058 91.4735C239.917 91.4909 244.269 92.2607 245.732 93.1888ZM287.734 112.441C287.047 119.816 285.959 127.227 285.315 128.907C284.67 130.588 285.004 131.964 286.059 131.964C287.113 131.964 289.019 126.104 290.292 118.94C293.491 100.961 293.507 100.623 291.109 99.778C289.76 99.3033 288.523 103.944 287.734 112.441ZM402.946 103.104C405.586 105.499 402.443 108.81 397.534 108.81C392.96 108.81 390.751 112.947 390.697 121.62C390.676 124.8 392.186 126.031 397.282 126.986C403.942 128.236 406.284 130.893 404.65 135.34C403.325 138.945 387.731 138.397 383.946 134.613C379.914 130.58 380.593 103.743 384.793 101.146C387.706 99.3458 400.301 100.704 402.946 103.104ZM349.511 104.308C348.803 105.015 348.224 106.491 348.224 107.589C348.224 108.796 349.123 108.683 350.506 107.299C351.762 106.043 352.341 104.567 351.793 104.019C351.245 103.471 350.217 103.6 349.511 104.308ZM126.506 129.073C127.259 132.255 128.411 137.227 129.067 140.124C130.184 145.059 130.772 145.325 138.432 144.382C147.303 143.288 152.576 145.486 150.988 149.617C149.838 152.609 123.593 159.887 120.608 158.043C119.491 157.354 118.629 149.235 118.629 139.427C118.629 124.147 119.024 122.11 121.884 122.66C123.674 123.005 125.754 125.89 126.506 129.073ZM242.591 129.315C247.173 130.644 246.866 135.138 242.108 136.382C239.089 137.171 238.25 139.014 238.25 144.86C238.25 154.616 233.339 162.106 229.197 158.67C226.984 156.833 226.577 154.026 227.509 147L228.736 137.752H220.891C211.682 137.752 208.319 133.112 214.302 128.66C217.808 126.05 232.518 126.389 242.591 129.315ZM343.194 138.875C343.838 140.554 344.365 143.979 344.365 146.487C344.365 150.543 345.357 151.112 353.333 151.635C372.314 152.879 368.714 165.016 349.227 165.473C335.422 165.797 332.393 162.61 334.093 149.543C335.685 137.314 340.45 131.726 343.194 138.875ZM191.574 142.892C192.261 147.714 190.316 148.513 173.616 150.269C160.06 151.693 152.445 148.326 156.95 142.896C159.749 139.524 167.176 138.184 181.333 138.501C189.674 138.688 191.061 139.282 191.574 142.892ZM405.811 156.825C407.243 157.732 408.102 160.107 407.72 162.102C407.131 165.184 404.559 165.929 390.649 167.046C371.667 168.57 367.517 167.81 367.517 162.801C367.517 160.804 369.036 158.284 370.894 157.201C374.992 154.815 402.177 154.521 405.811 156.825Z" fill="#61C9A8"/>
<path d="M402.674 244.748C400.571 248.151 405.13 251.723 408.702 249.471C410.345 248.433 411.841 246.716 412.024 245.655C412.501 242.897 404.31 242.102 402.674 244.748Z" fill="#61C9A8"/>
<path d="M444 50C446.539 49.1236 446.82 48.274 445.246 46.2417C441.612 41.5486 438.045 40.4033 436.595 42.7916C433.994 47.0766 438.632 51.8535 444 50Z" fill="#92D77E"/>
<path d="M429.5 66.4999C435.188 65.9419 440.028 64.471 435.575 56.8942C431.355 49.7166 423.166 45.4943 418.254 47.9637C410.077 52.0739 419.151 67.5149 429.5 66.4999Z" fill="#92D77E"/>
<path d="M23.6438 30.667C22.6847 29.1458 21.0501 29.0131 19.6369 30.3421C16.0422 33.7171 17.8857 37.8855 21.863 35.3778C23.8672 34.1142 24.5978 32.18 23.6438 30.667Z" fill="#7DD4FC"/>
<path d="M42.0762 40.3125C44.0931 31.4109 30.7699 30.9733 25.5874 39.1952C20.7881 46.8059 24.7186 52.8517 31.632 48.4929C34.6578 46.5851 41.6782 42.0689 42.0762 40.3125Z" fill="#7DD4FC"/>
</svg>
